<svg width="24" height="24" viewBox="0 0 24 24" fill="none" xmlns="http://www.w3.org/2000/svg">
<path d="M12.6059 7.3192V11.0298L15.6827 12.8757C15.8071 12.9473 15.916 13.0429 16.003 13.1571C16.0901 13.2712 16.1535 13.4015 16.1896 13.5405C16.2257 13.6794 16.2338 13.8241 16.2133 13.9662C16.1929 14.1083 16.1444 14.2448 16.0705 14.3679C15.9967 14.491 15.8991 14.5982 15.7834 14.6832C15.6677 14.7681 15.5363 14.8292 15.3967 14.8628C15.2572 14.8964 15.1123 14.9018 14.9707 14.8788C14.829 14.8558 14.6933 14.8048 14.5716 14.7288L10.9699 12.5678C10.8098 12.4718 10.6773 12.336 10.5853 12.1737C10.4933 12.0113 10.4449 11.8279 10.4449 11.6412V7.3192C10.4449 7.03263 10.5587 6.7578 10.7614 6.55516C10.964 6.35253 11.2388 6.23869 11.5254 6.23869C11.812 6.23869 12.0868 6.35253 12.2895 6.55516C12.4921 6.7578 12.6059 7.03263 12.6059 7.3192ZM11.5254 2.63699C10.3414 2.63394 9.16864 2.86588 8.07495 3.31937C6.98127 3.77286 5.98845 4.43888 5.15402 5.27884C4.73172 5.70564 4.34364 6.12253 3.96186 6.53943V5.87852C3.96186 5.59195 3.84802 5.31712 3.64539 5.11448C3.44275 4.91185 3.16792 4.79801 2.88135 4.79801C2.59478 4.79801 2.31995 4.91185 2.11732 5.11448C1.91468 5.31712 1.80084 5.59195 1.80084 5.87852V9.48021C1.80084 9.76678 1.91468 10.0416 2.11732 10.2442C2.31995 10.4469 2.59478 10.5607 2.88135 10.5607H6.48305C6.76961 10.5607 7.04445 10.4469 7.24708 10.2442C7.44972 10.0416 7.56355 9.76678 7.56355 9.48021C7.56355 9.19364 7.44972 8.91881 7.24708 8.71618C7.04445 8.51354 6.76961 8.3997 6.48305 8.3997H5.20174C5.67266 7.85945 6.15619 7.339 6.68654 6.80235C7.63753 5.85109 8.84778 5.20118 10.166 4.93384C11.4843 4.6665 12.8521 4.79359 14.0986 5.29923C15.345 5.80487 16.4148 6.66663 17.1743 7.77682C17.9337 8.88701 18.3491 10.1964 18.3686 11.5414C18.3881 12.8863 18.0108 14.2072 17.2839 15.3389C16.5569 16.4707 15.5126 17.3631 14.2813 17.9046C13.05 18.4462 11.6865 18.6129 10.361 18.3838C9.03555 18.1548 7.80697 17.5403 6.82881 16.617C6.62033 16.4202 6.34222 16.3143 6.05566 16.3226C5.7691 16.3308 5.49757 16.4526 5.30079 16.6611C5.10401 16.8696 4.99811 17.1477 5.00639 17.4342C5.01466 17.7208 5.13643 17.9923 5.34491 18.1891C6.41374 19.198 7.71329 19.9299 9.1301 20.321C10.5469 20.712 12.0379 20.7502 13.4729 20.4324C14.9079 20.1145 16.2433 19.4502 17.3625 18.4975C18.4816 17.5447 19.3505 16.3325 19.8933 14.9666C20.4361 13.6007 20.6363 12.1227 20.4764 10.6617C20.3166 9.20061 19.8014 7.8009 18.976 6.58476C18.1507 5.36861 17.0401 4.373 15.7414 3.68486C14.4427 2.99671 12.9952 2.63695 11.5254 2.63699Z" fill="#A7A7A7"/>
</svg>
