<svg width="24" height="24" viewBox="0 0 24 24" fill="none" xmlns="http://www.w3.org/2000/svg">
<path d="M17.625 6.75C17.625 5.68568 17.323 4.6432 16.7541 3.74367C16.1852 2.84413 15.3728 2.12445 14.4112 1.66822C13.4496 1.21198 12.3784 1.03792 11.3218 1.16624C10.2652 1.29457 9.26677 1.72002 8.44236 2.39317C7.61795 3.06632 7.00144 3.95955 6.66443 4.96911C6.32742 5.97867 6.28375 7.06313 6.53849 8.09652C6.79323 9.12991 7.33593 10.0698 8.10354 10.8071C8.87115 11.5443 9.83218 12.0487 10.875 12.2616V21.75C10.875 22.0484 10.9935 22.3345 11.2045 22.5455C11.4155 22.7565 11.7016 22.875 12 22.875C12.2984 22.875 12.5845 22.7565 12.7955 22.5455C13.0065 22.3345 13.125 22.0484 13.125 21.75V12.2616C14.3946 12.0008 15.5355 11.3102 16.3553 10.3061C17.175 9.30213 17.6235 8.04615 17.625 6.75ZM12 10.125C11.3325 10.125 10.68 9.92706 10.125 9.55621C9.56994 9.18536 9.13735 8.65826 8.88191 8.04156C8.62646 7.42485 8.55962 6.74625 8.68985 6.09157C8.82008 5.43688 9.14151 4.83552 9.61352 4.36351C10.0855 3.89151 10.6869 3.57007 11.3416 3.43985C11.9963 3.30962 12.6749 3.37646 13.2916 3.63191C13.9083 3.88735 14.4354 4.31993 14.8062 4.87495C15.1771 5.42996 15.375 6.08249 15.375 6.75C15.375 7.6451 15.0194 8.50355 14.3865 9.13648C13.7536 9.76942 12.8951 10.125 12 10.125Z" fill="#8450EC"/>
</svg>
