<svg width="27" height="27" viewBox="0 0 27 27" fill="none" xmlns="http://www.w3.org/2000/svg">
<path d="M25.2912 12.049H24.7524C24.4419 9.51449 23.2923 7.15671 21.4867 5.35112C19.6811 3.54553 17.3233 2.39595 14.7888 2.08543V1.54661C14.7888 1.18329 14.6444 0.834857 14.3875 0.577954C14.1306 0.321052 13.7822 0.176725 13.4189 0.176725C13.0556 0.176725 12.7071 0.321052 12.4502 0.577954C12.1933 0.834857 12.049 1.18329 12.049 1.54661V2.08543C9.51447 2.39595 7.15668 3.54553 5.35109 5.35112C3.5455 7.15671 2.39592 9.51449 2.0854 12.049H1.54658C1.18326 12.049 0.834828 12.1934 0.577926 12.4503C0.321023 12.7072 0.176697 13.0556 0.176697 13.4189C0.176697 13.7822 0.321023 14.1307 0.577926 14.3876C0.834828 14.6445 1.18326 14.7888 1.54658 14.7888H2.0854C2.39592 17.3233 3.5455 19.6811 5.35109 21.4867C7.15668 23.2923 9.51447 24.4419 12.049 24.7524V25.2912C12.049 25.6545 12.1933 26.003 12.4502 26.2599C12.7071 26.5168 13.0556 26.6611 13.4189 26.6611C13.7822 26.6611 14.1306 26.5168 14.3875 26.2599C14.6444 26.003 14.7888 25.6545 14.7888 25.2912V24.7524C17.3233 24.4419 19.6811 23.2923 21.4867 21.4867C23.2923 19.6811 24.4419 17.3233 24.7524 14.7888H25.2912C25.6545 14.7888 26.0029 14.6445 26.2598 14.3876C26.5167 14.1307 26.6611 13.7822 26.6611 13.4189C26.6611 13.0556 26.5167 12.7072 26.2598 12.4503C26.0029 12.1934 25.6545 12.049 25.2912 12.049ZM14.7888 21.9807V21.6382C14.7888 21.2749 14.6444 20.9265 14.3875 20.6696C14.1306 20.4127 13.7822 20.2683 13.4189 20.2683C13.0556 20.2683 12.7071 20.4127 12.4502 20.6696C12.1933 20.9265 12.049 21.2749 12.049 21.6382V21.9807C10.2469 21.6889 8.58238 20.8372 7.29151 19.5463C6.00063 18.2554 5.14891 16.5909 4.85713 14.7888H5.1996C5.56291 14.7888 5.91135 14.6445 6.16825 14.3876C6.42515 14.1307 6.56948 13.7822 6.56948 13.4189C6.56948 13.0556 6.42515 12.7072 6.16825 12.4503C5.91135 12.1934 5.56291 12.049 5.1996 12.049H4.85713C5.14891 10.2469 6.00063 8.58241 7.29151 7.29153C8.58238 6.00066 10.2469 5.14894 12.049 4.85715V5.19963C12.049 5.56294 12.1933 5.91138 12.4502 6.16828C12.7071 6.42518 13.0556 6.56951 13.4189 6.56951C13.7822 6.56951 14.1306 6.42518 14.3875 6.16828C14.6444 5.91138 14.7888 5.56294 14.7888 5.19963V4.85715C16.5909 5.14894 18.2554 6.00066 19.5463 7.29153C20.8371 8.58241 21.6889 10.2469 21.9806 12.049H21.6382C21.2749 12.049 20.9264 12.1934 20.6695 12.4503C20.4126 12.7072 20.2683 13.0556 20.2683 13.4189C20.2683 13.7822 20.4126 14.1307 20.6695 14.3876C20.9264 14.6445 21.2749 14.7888 21.6382 14.7888H21.9806C21.6889 16.5909 20.8371 18.2554 19.5463 19.5463C18.2554 20.8372 16.5909 21.6889 14.7888 21.9807ZM13.4189 8.39602C12.4255 8.39602 11.4543 8.6906 10.6283 9.24253C9.8023 9.79445 9.1585 10.5789 8.77833 11.4967C8.39816 12.4145 8.29869 13.4245 8.4925 14.3988C8.68631 15.3732 9.16469 16.2682 9.86716 16.9706C10.5696 17.6731 11.4646 18.1515 12.439 18.3453C13.4133 18.5391 14.4233 18.4396 15.3411 18.0595C16.2589 17.6793 17.0434 17.0355 17.5953 16.2095C18.1472 15.3835 18.4418 14.4124 18.4418 13.4189C18.4403 12.0872 17.9106 10.8105 16.9689 9.86886C16.0273 8.92721 14.7506 8.39753 13.4189 8.39602ZM13.4189 15.7021C12.9673 15.7021 12.5259 15.5681 12.1504 15.3173C11.775 15.0664 11.4823 14.7098 11.3095 14.2926C11.1367 13.8754 11.0915 13.4164 11.1796 12.9735C11.2677 12.5306 11.4852 12.1238 11.8045 11.8045C12.1238 11.4852 12.5306 11.2677 12.9735 11.1796C13.4164 11.0916 13.8754 11.1368 14.2926 11.3096C14.7098 11.4824 15.0664 11.775 15.3172 12.1505C15.5681 12.5259 15.702 12.9674 15.702 13.4189C15.702 14.0244 15.4615 14.6052 15.0333 15.0333C14.6051 15.4615 14.0244 15.7021 13.4189 15.7021Z" fill="#8450EC"/>
</svg>
